<svg id="Layer_1" data-name="Layer 1" xmlns="http://www.w3.org/2000/svg" xmlns:xlink="http://www.w3.org/1999/xlink" viewBox="0 0 352.77 352.77"><defs><style>.cls-2{clip-path:url(#clip-path);}.cls-3{fill:none;}.cls-4{fill:#fff;}</style><clipPath id="clip-path" transform="translate(-57.69 -69.07)"><rect class="cls-1" x="57.69" y="69.07" width="352.77" height="352.77"/></clipPath></defs><title>reddit-logo</title><g class="cls-2"><path class="cls-3" d="M410.46,245.46A176.38,176.38,0,1,1,234.07,69.07,176.38,176.38,0,0,1,410.46,245.46" transform="translate(-57.69 -69.07)"/><path class="cls-4" d="M351.63,245.46A25.7,25.7,0,0,0,308.07,227c-17.59-12.69-41.81-20.89-68.79-21.83L251,150l38.28,8.14a18.4,18.4,0,1,0,1.88-9l-42.75-9.08a4.52,4.52,0,0,0-3.45.64,4.6,4.6,0,0,0-2,2.9l-13.08,61.51c-27.38.76-52,9-69.8,21.79a25.71,25.71,0,1,0-28.31,42,50.69,50.69,0,0,0-.62,7.78c0,39.57,46.07,71.66,102.89,71.66s102.89-32.09,102.89-71.66a50.87,50.87,0,0,0-.6-7.73,25.72,25.72,0,0,0,15.3-23.5M175.28,263.83a18.37,18.37,0,1,1,18.38,18.37,18.4,18.4,0,0,1-18.38-18.37m102.45,48.55c-12.54,12.52-36.57,13.49-43.63,13.49s-31.1-1-43.63-13.5a4.76,4.76,0,0,1,6.74-6.73c7.9,7.91,24.81,10.71,36.89,10.71s29-2.8,36.91-10.71a4.76,4.76,0,1,1,6.72,6.74m-3.23-30.18a18.37,18.37,0,1,1,18.37-18.37,18.39,18.39,0,0,1-18.37,18.37" transform="translate(-57.69 -69.07)"/></g></svg>