<svg width="360" height="360" viewBox="0 0 360 360" fill="none" xmlns="http://www.w3.org/2000/svg">
<rect width="360" height="360" fill="white"/>
<rect width="360" height="360" rx="25" fill="url(#paint0_linear)"/>
<path d="M273.98 131.173C270.798 124.209 262.696 115.635 242.169 114.339C237.579 114.047 233.637 117.551 233.349 122.158C233.061 126.766 236.544 130.736 241.127 131.025C250.606 131.624 257.073 134.221 258.87 138.153C259.893 140.392 260.433 141.943 260.364 143.725C260.157 148.986 255.41 157.366 246.239 168.688C233.991 157.411 218.867 146.807 201.9 137.651C185.021 128.541 168.344 122.719 155.339 118.637C155.984 116.895 156.658 115.2 157.361 113.556C163.751 98.6295 171.947 89.7188 179.286 89.7188C185.366 89.7188 190.703 95.6932 194.11 100.705C196.701 104.517 201.875 105.495 205.667 102.89C209.459 100.285 210.431 95.0838 207.841 91.2719C197.574 76.1699 186.646 73 179.286 73C164.669 73 151.457 85.0555 142.086 106.946C141.011 109.456 139.999 112.067 139.049 114.768C123.359 112.37 111.031 114.03 110.369 114.123C110.315 114.13 110.261 114.139 110.207 114.147C95.2411 116.549 88.5172 123.763 85.5118 129.392C83.512 133.136 82.4705 137.19 82.4165 141.44C82.34 147.432 84.1701 154.104 87.8549 161.269C89.964 165.37 94.9804 166.975 99.0602 164.856C103.139 162.735 104.736 157.692 102.628 153.591C100.244 148.955 99.0049 144.827 99.0456 141.654C99.0652 140.096 99.4314 138.672 100.164 137.3C102.371 133.166 108.184 131.416 112.718 130.675C113.585 130.566 122.693 129.506 134.35 130.995C130.844 145.955 128.98 162.691 128.98 180C128.98 197.852 131.787 214.465 134.721 227.951C133 228.195 131.304 228.399 129.64 228.557C114.065 230.033 102.5 227.273 99.4593 221.354C98.9163 220.297 98.6453 218.916 98.6307 217.13C98.6112 214.758 99.0897 212.268 100.053 209.731C101.69 205.417 99.5391 200.586 95.2486 198.94C90.9589 197.295 86.1528 199.457 84.5156 203.77C82.8102 208.262 81.9642 212.804 82.0012 217.269C82.0382 221.739 82.9154 225.585 84.6836 229.026C90.2696 239.9 103.245 245.671 121.686 245.671C124.712 245.671 127.888 245.515 131.201 245.202C133.722 244.962 136.301 244.634 138.928 244.222C143.86 259.14 150.507 268.481 151.45 269.763C161.528 284.006 172.148 287 179.286 287C186.646 287 197.574 283.83 207.84 268.729C210.431 264.917 209.458 259.716 205.667 257.111C201.876 254.506 196.702 255.484 194.11 259.295C190.703 264.307 185.366 270.281 179.286 270.281C173.431 270.281 168.263 264.697 164.959 260.012C164.908 259.94 164.856 259.869 164.803 259.798C164.738 259.712 159.52 252.694 155.309 240.728C170.075 236.799 185.761 230.643 201.187 222.634C217.537 214.144 232.669 204.015 244.947 193.338C245.317 193.017 245.644 192.665 245.943 192.298C254.446 202.28 259.196 211.607 259.11 218.346C259.082 220.501 258.866 221.844 258.408 222.701C256.183 226.868 250.292 228.613 245.742 229.344C241.207 230.071 238.118 234.357 238.841 238.916C239.495 243.029 243.027 245.96 247.043 245.959C247.478 245.959 247.92 245.925 248.364 245.854C263.331 243.452 270.055 236.237 273.061 230.608C275.353 226.316 275.696 221.915 275.739 218.561C275.882 207.341 269.749 194.323 257.954 180.699C270.834 165.085 276.603 153.976 276.98 144.385C277.192 139.005 275.664 134.856 273.98 131.173ZM157.757 136.989C157.608 137.067 157.458 137.142 157.309 137.219C154.525 138.665 151.774 140.16 149.065 141.697C149.521 139.302 150.023 136.953 150.566 134.653C152.852 135.372 155.258 136.15 157.757 136.989ZM149.739 218.463C152.024 219.79 154.336 221.089 156.673 222.35C156.923 222.485 157.174 222.618 157.425 222.752C155.267 223.415 153.128 224.028 151.012 224.59C150.582 222.615 150.154 220.57 149.739 218.463ZM193.556 207.779C188.68 210.31 183.789 212.64 178.924 214.755C174.117 212.572 169.282 210.18 164.539 207.619C158.286 204.245 152.215 200.603 146.472 196.791C145.935 191.358 145.61 185.734 145.61 180C145.61 174.195 145.836 168.475 146.27 162.889C152.206 159.064 158.474 155.43 164.94 152.073C169.678 149.613 174.496 147.316 179.295 145.225C184.141 147.344 189.089 149.711 194.034 152.38C200.167 155.689 206.094 159.248 211.714 162.975C212.172 168.409 212.546 174.146 212.546 180C212.546 185.952 212.16 191.784 211.691 197.299C205.92 200.996 199.843 204.515 193.556 207.779ZM229.099 184.838C229.146 183.242 229.176 181.632 229.176 180C229.176 178.615 229.152 177.246 229.118 175.887C230.931 177.399 232.684 178.923 234.372 180.454C234.271 180.534 234.167 180.607 234.069 180.693C232.467 182.085 230.805 183.467 229.099 184.838ZM212.961 113.543C217.554 113.543 221.276 117.285 221.276 121.902C221.276 126.519 217.554 130.262 212.961 130.262C208.369 130.262 204.646 126.519 204.646 121.902C204.646 117.285 208.369 113.543 212.961 113.543ZM100.293 182.926C100.293 178.309 104.016 174.566 108.608 174.566C113.201 174.566 116.923 178.309 116.923 182.926C116.923 187.543 113.201 191.285 108.608 191.285C104.016 191.285 100.293 187.543 100.293 182.926ZM222.939 237.262C222.939 241.879 219.217 245.621 214.624 245.621C210.032 245.621 206.309 241.879 206.309 237.262C206.309 232.645 210.032 228.902 214.624 228.902C219.217 228.902 222.939 232.645 222.939 237.262Z" fill="white"/>
<path d="M168.277 194H190.486V187.241H176.665V181.93H189.399V175.171H176.665V169.86H190.546V163.101H168.277V194Z" fill="white"/>
<defs>
<linearGradient id="paint0_linear" x1="180" y1="0" x2="180" y2="360" gradientUnits="userSpaceOnUse">
<stop stop-color="#4CB0F4"/>
<stop offset="1" stop-color="#8526FF"/>
</linearGradient>
</defs>
</svg>
