<?xml version="1.0" standalone="no"?>
<!DOCTYPE svg PUBLIC "-//W3C//DTD SVG 20010904//EN"
 "http://www.w3.org/TR/2001/REC-SVG-20010904/DTD/svg10.dtd">
<svg version="1.0" xmlns="http://www.w3.org/2000/svg"
 width="500.000000pt" height="500.000000pt" viewBox="0 0 500.000000 500.000000"
 preserveAspectRatio="xMidYMid meet">
<metadata>
Created by potrace 1.11, written by Peter Selinger 2001-2013
</metadata>
<g transform="translate(0.000000,500.000000) scale(0.100000,-0.100000)"
fill="#000000" stroke="none">
<path d="M0 2500 l0 -2500 2500 0 2500 0 0 2500 0 2500 -2500 0 -2500 0 0
-2500z m970 164 c0 -96 -12 -107 -39 -34 -21 57 -61 81 -148 88 -88 7 -93 -1
-93 -130 l0 -98 34 0 c44 0 83 32 97 81 7 21 16 39 21 39 4 0 8 -63 8 -140 0
-77 -4 -140 -8 -140 -4 0 -14 19 -22 42 -17 47 -51 76 -95 80 l-30 3 -3 -103
c-4 -134 1 -142 82 -142 83 0 140 29 181 93 45 70 54 61 36 -38 l-14 -85 -249
0 c-231 0 -297 8 -218 25 17 4 35 15 40 25 13 24 13 445 0 469 -5 10 -23 21
-40 24 -16 4 -30 11 -30 17 0 6 84 10 245 10 l245 0 0 -86z m1620 78 c0 -5
-15 -15 -32 -23 l-33 -14 -3 -107 -3 -108 101 0 100 0 0 94 c0 52 -3 101 -6
110 -3 8 -21 20 -40 26 -65 22 -34 30 111 30 145 0 176 -8 111 -30 -21 -7 -36
-19 -40 -33 -10 -38 -7 -437 4 -457 5 -10 23 -21 40 -25 68 -15 22 -25 -115
-25 -137 0 -183 10 -115 25 17 4 35 15 40 25 6 10 10 64 10 119 l0 101 -100 0
-101 0 3 -117 3 -117 33 -10 c63 -18 30 -26 -108 -26 -77 0 -140 4 -140 8 0 5
15 15 33 23 l32 14 3 228 c1 140 -2 235 -8 247 -5 10 -20 20 -32 22 -12 2 -23
9 -26 16 -3 9 29 12 137 12 78 0 141 -4 141 -8z m1320 -174 l0 -182 56 54 c75
74 82 88 49 100 -49 19 -26 30 59 30 91 0 116 -12 63 -29 -18 -6 -55 -31 -82
-55 l-50 -44 34 -48 c19 -27 61 -84 93 -127 32 -43 58 -80 58 -83 0 -2 -45 -4
-100 -4 -60 0 -100 4 -100 10 0 6 6 10 14 10 8 0 18 5 21 10 8 14 -85 152 -99
147 -6 -2 -12 -33 -14 -70 -3 -58 0 -68 18 -79 11 -7 20 -16 20 -20 0 -5 -45
-8 -100 -8 -55 0 -100 3 -100 8 0 4 9 13 20 20 19 12 20 23 20 257 0 234 -1
245 -20 255 -38 21 -20 30 60 30 l80 0 0 -182z m-2593 -7 c66 -30 84 -87 38
-117 -38 -25 -75 -6 -75 39 0 46 -20 72 -51 64 -34 -9 -51 -42 -56 -111 -10
-121 38 -206 115 -206 24 0 49 8 65 20 42 33 40 5 -2 -33 -88 -80 -227 -55
-276 50 -60 126 3 273 130 304 48 11 68 10 112 -10z m383 -6 c104 -54 133
-213 56 -318 -52 -71 -178 -88 -250 -33 -94 72 -108 222 -27 308 60 64 147 81
221 43z m464 11 c59 -24 66 -45 66 -188 0 -132 9 -178 35 -178 8 0 15 -4 15
-10 0 -6 -40 -10 -100 -10 -55 0 -100 2 -100 5 0 3 9 14 20 25 18 18 20 33 20
143 0 95 -4 128 -16 145 -19 28 -44 28 -78 1 -26 -20 -26 -22 -26 -150 0 -118
2 -130 20 -141 11 -7 20 -16 20 -20 0 -5 -45 -8 -100 -8 -94 0 -126 10 -80 25
19 6 20 15 20 165 0 149 -1 160 -20 170 -38 21 -20 30 60 30 l80 0 0 -32 0
-32 21 23 c22 23 73 50 97 51 7 0 28 -6 46 -14z m1076 -11 c53 -28 60 -48 60
-185 0 -131 6 -155 33 -144 26 10 20 -12 -9 -35 -39 -31 -97 -28 -122 5 l-19
27 -30 -23 c-66 -48 -160 -34 -184 27 -25 66 36 130 160 168 l61 18 0 49 c0
71 -44 105 -104 82 -18 -7 -22 -39 -6 -49 14 -9 13 -48 -2 -63 -20 -20 -76
-15 -88 7 -39 74 53 147 168 136 30 -3 67 -12 82 -20z m392 15 c42 -12 78 -51
78 -86 0 -22 -33 -54 -57 -54 -22 0 -43 31 -43 64 0 37 -20 60 -46 54 -79 -15
-81 -243 -3 -301 37 -27 94 -25 125 4 29 27 43 19 21 -15 -21 -32 -94 -66
-142 -66 -60 0 -121 35 -151 86 -65 111 -6 286 104 310 15 3 32 7 37 9 19 6
40 5 77 -5z m774 -1 c32 -8 48 -8 57 0 21 17 27 3 27 -61 0 -64 -11 -74 -35
-29 -18 37 -61 71 -88 71 -25 0 -57 -28 -57 -50 0 -23 36 -54 91 -79 71 -33
101 -70 101 -124 0 -56 -14 -82 -55 -107 -37 -23 -78 -25 -145 -8 -35 9 -47 9
-50 0 -2 -7 -10 -12 -18 -12 -11 0 -14 16 -14 70 0 79 17 95 39 35 16 -47 55
-75 101 -75 44 0 63 18 58 57 -2 23 -15 34 -73 65 -91 50 -115 77 -115 132 0
51 27 91 74 112 38 16 46 17 102 3z"/>
<path d="M1574 2529 c-16 -18 -20 -40 -22 -143 -4 -132 5 -172 40 -185 62 -23
83 22 83 179 0 94 -3 121 -18 143 -21 33 -56 35 -83 6z"/>
<path d="M3138 2364 c-33 -17 -48 -43 -48 -81 0 -34 16 -53 45 -53 37 0 55 31
55 93 0 62 -6 67 -52 41z"/>
</g>
</svg>
